<?xml version="1.0" standalone="no"?>
<!DOCTYPE svg PUBLIC "-//W3C//DTD SVG 20010904//EN"
 "http://www.w3.org/TR/2001/REC-SVG-20010904/DTD/svg10.dtd">
<svg version="1.0" xmlns="http://www.w3.org/2000/svg"
 width="512.000000pt" height="512.000000pt" viewBox="0 0 512.000000 512.000000"
 preserveAspectRatio="xMidYMid meet">
<metadata>
Created by potrace 1.11, written by Peter Selinger 2001-2013
</metadata>
<g transform="translate(0.000000,512.000000) scale(0.100000,-0.100000)"
fill="#000000" stroke="none">
<path d="M560 5103 c-53 -9 -170 -46 -170 -54 0 -5 -7 -9 -16 -9 -22 0 -113
-62 -167 -114 -84 -82 -146 -192 -184 -326 -4 -14 -9 -918 -10 -2010 -3 -2175
-7 -2036 56 -2174 47 -104 85 -153 191 -247 36 -32 173 -101 225 -114 17 -4
39 -10 50 -13 11 -4 909 -8 1995 -9 1706 -2 1985 0 2045 12 75 16 229 86 256
117 9 10 19 18 23 18 15 0 112 111 143 162 40 66 82 183 90 252 8 69 8 3900 0
3951 -18 112 -43 180 -96 263 -68 104 -163 188 -271 239 -140 66 -9 62 -2170
61 -1081 0 -1976 -3 -1990 -5z"/>
</g>
</svg>
